<svg xmlns="http://www.w3.org/2000/svg" xmlns:xlink="http://www.w3.org/1999/xlink" width="691.641" height="384.581" viewBox="0 0 691.641 384.581">
  <defs>
    <clipPath id="clip-path">
      <path id="Clip_14" data-name="Clip 14" d="M0,0H304.857V166.238H0Z" transform="translate(0 0)" fill="none"/>
    </clipPath>
    <clipPath id="clip-path-2">
      <path id="Clip_17" data-name="Clip 17" d="M0,384.581H691.641V0H0Z" transform="translate(0 0.419)" fill="none"/>
    </clipPath>
    <clipPath id="clip-path-3">
      <path id="Clip_55" data-name="Clip 55" d="M120.561.12C91.91,2.388,90.32,26.692,90.32,26.692h0S67.567,14.021,47.822,16.1h0A29.088,29.088,0,0,0,22.99,35.524h0S16.022,30.34,10.6,33.289h0c-5.42,2.949-16.262,12.557-6.969,16.5h0c25.648,10.878,135.515,3.078,160.295,2.663h0c7.994-.133,36.516-1.373,42.047-5.174h0C213.6,42.026,217.249,31.088,208.128,28h0c-7.189-2.431-12.221,7.368-12.221,7.368h0s1.781-16.9-9.807-19.267h0c-15.751-3.214-27.156,12.368-27.156,12.368h0S149.9,0,123.557,0h0q-1.463,0-3,.12" transform="translate(0.403 0.968)" fill="none"/>
    </clipPath>
    <clipPath id="clip-path-27">
      <path id="Clip_127" data-name="Clip 127" d="M120.561.12C91.91,2.388,90.32,26.692,90.32,26.692h0S67.567,14.021,47.822,16.1h0A29.088,29.088,0,0,0,22.99,35.524h0S16.022,30.34,10.6,33.289h0c-5.42,2.949-16.262,12.557-6.969,16.5h0c25.648,10.878,135.515,3.078,160.295,2.663h0c7.994-.133,36.516-1.373,42.047-5.174h0C213.6,42.026,217.249,31.088,208.128,28h0c-7.189-2.431-12.221,7.368-12.221,7.368h0s1.781-16.9-9.807-19.267h0c-15.751-3.214-27.156,12.368-27.156,12.368h0S149.9,0,123.557,0h0q-1.463,0-3,.12Z" transform="translate(0.403 0.968)" fill="none"/>
    </clipPath>
    <clipPath id="clip-path-32">
      <path id="Clip_170" data-name="Clip 170" d="M0,278H500V0H0Z" fill="none"/>
    </clipPath>
  </defs>
  <g id="illustration" transform="translate(0 -0.419)">
    <g id="Group_53" data-name="Group 53">
      <path id="Fill_1" data-name="Fill 1" d="M3.878,202.8C24.064,93.687,93.233,26.9,229.159,4.067s230.8,55.671,325.956,105.65C688.2,179.614,699.847,343.263,503.962,350.6,304.944,358.057-40.4,442.1,3.878,202.8" transform="translate(15.851 14.091)" fill="#0274bc"/>
      <path id="Fill_5" data-name="Fill 5" d="M543,.321c-24.058.445-47.922,1.959-71.843,4.573-22.749,2.486-45.431,5.551-68.183,8.015-23.48,2.544-47.058,4.425-70.689,4.481-23.83.057-47.731-1.56-71.508-3C173.982,9.128,86.99.254,0,3.863,16.434,175.307,321.12,104.342,503.261,97.518c97.9-3.668,143.956-46.375,148.931-96.909C615.795.173,579.4-.351,543,.321" transform="translate(16.552 267.174)" fill="#f5d798"/>
      <path id="Fill_7" data-name="Fill 7" d="M0,50.947H61.646V0H0Z" transform="translate(133.287 222.151)" fill="#c8dae5"/>
      <path id="Fill_9" data-name="Fill 9" d="M0,1.793C0,.8,19.133,0,42.734,0S85.466.8,85.466,1.793,66.335,3.586,42.734,3.586,0,2.784,0,1.793" transform="translate(210.057 333.267)" fill="#d3e6f2"/>
      <path id="Fill_11" data-name="Fill 11" d="M0,1.793C0,.8,19.131,0,42.733,0S85.466.8,85.466,1.793,66.334,3.586,42.733,3.586,0,2.784,0,1.793" transform="translate(456.276 333.267)" fill="#d3e6f2"/>
      <g id="Group_15" data-name="Group 15" transform="translate(0 208.964)">
        <path id="Clip_14-2" data-name="Clip 14" d="M0,0H304.857V166.238H0Z" transform="translate(0 0)" fill="none"/>
        <g id="Group_15-2" data-name="Group 15" clip-path="url(#clip-path)">
          <path id="Fill_13" data-name="Fill 13" d="M.694,0c.317,16.553,1.986,33.073,6.258,48.872a135.5,135.5,0,0,0,8.389,22.9A118.312,118.312,0,0,0,27.923,92.453a126.585,126.585,0,0,0,36.109,31.772c1.709,1.077,3.51,2.01,5.256,3.029,1.77.983,3.574,1.906,5.365,2.852,3.63,1.8,7.3,3.542,11.043,5.117a226.646,226.646,0,0,0,22.95,8.34c7.8,2.412,15.724,4.457,23.723,6.215,7.993,1.792,16.07,3.256,24.179,4.557,16.221,2.654,32.637,4.185,49.083,5.451,32.926,2.32,66.049,2.514,99.225,2.332a718.207,718.207,0,0,1-99.55,3.712l-6.242-.247-6.241-.322c-2.08-.1-4.157-.274-6.237-.42s-4.157-.3-6.234-.493c-8.309-.7-16.612-1.594-24.891-2.749s-16.525-2.611-24.726-4.335c-8.192-1.759-16.335-3.829-24.377-6.29-16.042-4.984-31.8-11.465-46.172-20.511A139.913,139.913,0,0,1,39.907,115.1l-2.341-2.167-2.259-2.253-1.129-1.126-1.084-1.17-2.159-2.348a122.926,122.926,0,0,1-7.883-10.019c-1.268-1.7-2.369-3.525-3.549-5.288L17.862,88c-.549-.908-1.091-1.818-1.585-2.756l-1.521-2.792c-.488-.937-.944-1.894-1.417-2.841-.976-1.878-1.758-3.848-2.622-5.775a137.021,137.021,0,0,1-7.455-24.09A176.018,176.018,0,0,1,.694,0" transform="translate(0 0)" fill="#fff"/>
        </g>
      </g>
      <path id="Clip_17-2" data-name="Clip 17" d="M0,384.581H691.641V0H0Z" transform="translate(0 0.419)" fill="none"/>
      <g id="Mask_Group_4" data-name="Mask Group 4" clip-path="url(#clip-path-2)">
        <path id="Fill_16" data-name="Fill 16" d="M0,65.87H100.583V0H0Z" transform="translate(10.106 215.77)" fill="#c8dae5"/>
        <path id="Fill_18" data-name="Fill 18" d="M30.68,96.167H0V30.3L15.339,0,30.68,30.3Z" transform="translate(110.69 185.473)" fill="#e0edf6"/>
        <path id="Fill_19" data-name="Fill 19" d="M100.583,30.3,115.923,0h-93.4L0,30.3Z" transform="translate(10.106 185.473)" fill="#c8dae5"/>
        <path id="Fill_20" data-name="Fill 20" d="M0,9.4H6.99V0H0Z" transform="translate(26.416 202.681)" fill="#e0edf6"/>
        <path id="Fill_21" data-name="Fill 21" d="M0,8.625H8.636V0H0Z" transform="translate(17.392 228.272)" fill="#e0edf6"/>
        <path id="Fill_22" data-name="Fill 22" d="M0,8.625H8.636V0H0Z" transform="translate(35.774 228.272)" fill="#e0edf6"/>
        <path id="Fill_23" data-name="Fill 23" d="M0,8.625H8.636V0H0Z" transform="translate(54.156 228.272)" fill="#e0edf6"/>
        <path id="Fill_24" data-name="Fill 24" d="M0,8.625H8.636V0H0Z" transform="translate(72.537 228.272)" fill="#e0edf6"/>
        <path id="Fill_25" data-name="Fill 25" d="M0,8.625H8.636V0H0Z" transform="translate(90.92 228.272)" fill="#e0edf6"/>
        <path id="Fill_26" data-name="Fill 26" d="M0,8.625H8.636V0H0Z" transform="translate(17.392 245.661)" fill="#e0edf6"/>
        <path id="Fill_27" data-name="Fill 27" d="M0,8.625H8.636V0H0Z" transform="translate(35.774 245.661)" fill="#e0edf6"/>
        <path id="Fill_28" data-name="Fill 28" d="M0,8.625H8.636V0H0Z" transform="translate(54.156 245.661)" fill="#e0edf6"/>
        <path id="Fill_29" data-name="Fill 29" d="M0,8.625H8.636V0H0Z" transform="translate(72.537 245.661)" fill="#e0edf6"/>
        <path id="Fill_30" data-name="Fill 30" d="M0,8.625H8.636V0H0Z" transform="translate(90.92 245.661)" fill="#e0edf6"/>
        <path id="Fill_31" data-name="Fill 31" d="M0,8.625H8.636V0H0Z" transform="translate(17.392 263.048)" fill="#e0edf6"/>
        <path id="Fill_32" data-name="Fill 32" d="M0,8.625H8.636V0H0Z" transform="translate(35.774 263.048)" fill="#e0edf6"/>
        <path id="Fill_33" data-name="Fill 33" d="M0,8.625H8.636V0H0Z" transform="translate(54.156 263.048)" fill="#e0edf6"/>
        <path id="Fill_34" data-name="Fill 34" d="M0,8.625H8.636V0H0Z" transform="translate(72.537 263.048)" fill="#e0edf6"/>
        <path id="Fill_35" data-name="Fill 35" d="M0,8.625H8.636V0H0Z" transform="translate(90.92 263.048)" fill="#e0edf6"/>
        <path id="Fill_36" data-name="Fill 36" d="M0,9.4H6.99V0H0Z" transform="translate(56.902 202.681)" fill="#e0edf6"/>
        <path id="Fill_37" data-name="Fill 37" d="M0,9.4H6.99V0H0Z" transform="translate(87.388 202.681)" fill="#e0edf6"/>
        <path id="Fill_38" data-name="Fill 38" d="M0,3.005A3.01,3.01,0,1,1,3.009,6.011,3.008,3.008,0,0,1,0,3.005" transform="translate(123.019 202.68)" fill="#fff"/>
        <path id="Fill_39" data-name="Fill 39" d="M0,8.625H8.636V0H0Z" transform="translate(54.156 228.272)" fill="#e0edf6"/>
        <path id="Fill_40" data-name="Fill 40" d="M0,8.625H6.905V0H0Z" transform="translate(117.041 228.272)" fill="#b7ccd9"/>
        <path id="Fill_41" data-name="Fill 41" d="M0,8.625H6.906V0H0Z" transform="translate(130.297 228.272)" fill="#b7ccd9"/>
        <path id="Fill_42" data-name="Fill 42" d="M0,8.625H6.905V0H0Z" transform="translate(117.041 245.661)" fill="#b7ccd9"/>
        <path id="Fill_43" data-name="Fill 43" d="M0,8.625H6.906V0H0Z" transform="translate(130.297 245.661)" fill="#b7ccd9"/>
        <path id="Fill_44" data-name="Fill 44" d="M0,8.625H6.905V0H0Z" transform="translate(117.041 263.048)" fill="#b7ccd9"/>
        <path id="Fill_45" data-name="Fill 45" d="M0,8.625H6.906V0H0Z" transform="translate(130.297 263.048)" fill="#b7ccd9"/>
        <path id="Fill_46" data-name="Fill 46" d="M0,10.86H2.6V0H0Z" transform="translate(47.644 180.604)" fill="#c8dae5"/>
        <path id="Fill_47" data-name="Fill 47" d="M0,10.86H1.812V0H0Z" transform="translate(106.417 182.673)" fill="#c8dae5"/>
        <path id="Fill_48" data-name="Fill 48" d="M.043.585C-1.119-1.8,21.565,3.922,46.24,3.253S211.144-1.9,209.514,1.559c-2.675,5.678-37.136,6.573-71.363,7.482S70.5,15.757,46.24,14.217,5.479,11.761.043.585" transform="translate(3.218 285.89)" fill="#d3e6f2"/>
        <path id="Fill_49" data-name="Fill 49" d="M224.866,0,0,105.541,290.887,23.527Z" transform="translate(113.002 0.419)" fill="#fff"/>
        <path id="Fill_50" data-name="Fill 50" d="M0,27.162,97.866,14.739S98.723,0,85.478,0,64.466,13.187,64.466,13.187,63.7,8.533,52.044,8.533,0,27.162,0,27.162" transform="translate(326.566 60.194)" fill="#fff"/>
        <path id="Fill_51" data-name="Fill 51" d="M0,13.79C10.191,12,20.415,10.52,30.653,9.144,35.768,8.427,40.9,7.821,46.018,7.162L61.4,5.355,76.8,3.711c5.141-.488,10.275-1.036,15.423-1.466C102.515,1.322,112.815.508,123.149,0,112.959,1.792,102.734,3.276,92.5,4.651c-5.115.718-10.243,1.32-15.364,1.98l-15.386,1.8-15.4,1.64c-5.14.491-10.275,1.032-15.422,1.466C20.634,12.463,10.334,13.279,0,13.79" transform="translate(264.039 87.356)" fill="#fff"/>
        <path id="Fill_52" data-name="Fill 52" d="M120.676,0,0,46.339,111.355,23.153Z" transform="translate(570.966 143.33)" fill="#fff"/>
      </g>
    </g>
    <g id="Group_141" data-name="Group 141" transform="translate(4 238)">
      <g id="Group_56" data-name="Group 56">
        <path id="Clip_55-2" data-name="Clip 55" d="M120.561.12C91.91,2.388,90.32,26.692,90.32,26.692h0S67.567,14.021,47.822,16.1h0A29.088,29.088,0,0,0,22.99,35.524h0S16.022,30.34,10.6,33.289h0c-5.42,2.949-16.262,12.557-6.969,16.5h0c25.648,10.878,135.515,3.078,160.295,2.663h0c7.994-.133,36.516-1.373,42.047-5.174h0C213.6,42.026,217.249,31.088,208.128,28h0c-7.189-2.431-12.221,7.368-12.221,7.368h0s1.781-16.9-9.807-19.267h0c-15.751-3.214-27.156,12.368-27.156,12.368h0S149.9,0,123.557,0h0q-1.463,0-3,.12" transform="translate(0.403 0.968)" fill="none"/>
        <g id="Group_56-2" data-name="Group 56" clip-path="url(#clip-path-3)">
          <path id="Fill_54" data-name="Fill 54" d="M.386,11.292a.392.392,0,0,1-.061-.778c.159-.025,15.7-2.621,14.759-10.075A.389.389,0,0,1,15.418,0a.393.393,0,0,1,.433.338C16.884,8.541,1.12,11.18.449,11.287a.411.411,0,0,1-.063,0" transform="translate(182.776 7.107)" fill="#fff"/>
        </g>
      </g>
      <g id="Group_59" data-name="Group 59">
        <path id="Clip_58-2" data-name="Clip 58" d="M120.561.12C91.91,2.388,90.32,26.692,90.32,26.692h0S67.567,14.021,47.822,16.1h0A29.088,29.088,0,0,0,22.99,35.524h0S16.022,30.34,10.6,33.289h0c-5.42,2.949-16.262,12.557-6.969,16.5h0c25.648,10.878,135.515,3.078,160.295,2.663h0c7.994-.133,36.516-1.373,42.047-5.174h0C213.6,42.026,217.249,31.088,208.128,28h0c-7.189-2.431-12.221,7.368-12.221,7.368h0s1.781-16.9-9.807-19.267h0c-15.751-3.214-27.156,12.368-27.156,12.368h0S149.9,0,123.557,0h0q-1.463,0-3,.12" transform="translate(0.403 0.968)" fill="none"/>
        <g id="Group_59-2" data-name="Group 59" clip-path="url(#clip-path-3)">
          <path id="Fill_57" data-name="Fill 57" d="M3.631,49.786c25.648,10.878,135.515,3.078,160.3,2.664,7.993-.133,36.515-1.373,42.046-5.175,7.633-5.248,11.277-16.187,2.155-19.272-7.189-2.432-12.221,7.368-12.221,7.368s1.781-16.9-9.807-19.268c-15.751-3.214-27.156,12.369-27.156,12.369S149.213-2.146,120.561.12,90.32,26.693,90.32,26.693,67.568,14.02,47.822,16.1a29.086,29.086,0,0,0-24.83,19.421S16.022,30.34,10.6,33.288s-16.263,12.557-6.97,16.5" transform="translate(0.403 0.968)" fill="#7eacc9"/>
        </g>
      </g>
      <g id="Group_62" data-name="Group 62">
        <path id="Clip_61-2" data-name="Clip 61" d="M120.561.12C91.91,2.388,90.32,26.692,90.32,26.692h0S67.567,14.021,47.822,16.1h0A29.088,29.088,0,0,0,22.99,35.524h0S16.022,30.34,10.6,33.289h0c-5.42,2.949-16.262,12.557-6.969,16.5h0c25.648,10.878,135.515,3.078,160.295,2.663h0c7.994-.133,36.516-1.373,42.047-5.174h0C213.6,42.026,217.249,31.088,208.128,28h0c-7.189-2.431-12.221,7.368-12.221,7.368h0s1.781-16.9-9.807-19.267h0c-15.751-3.214-27.156,12.368-27.156,12.368h0S149.9,0,123.557,0h0q-1.463,0-3,.12" transform="translate(0.403 0.968)" fill="none"/>
        <g id="Group_62-2" data-name="Group 62" clip-path="url(#clip-path-3)">
          <path id="Fill_60" data-name="Fill 60" d="M4.029,30.083C29.676,40.961,136,31.51,160.787,31.51c11.655,0,29.108-17.941,13.9-23.195s-29.119,9.033-29.119,9.033S133.672,0,104.851,0C88.822,0,89.622,22.258,89.622,22.258s-20.134-10.922-39.88-8.84-25.893,9.4-25.893,9.4-5.775-6.205-13.618-5.4c-6.7.686-15.5,8.722-6.2,12.664" transform="translate(3.542 21.907)" fill="#7eacc9"/>
        </g>
      </g>
      <g id="Group_65" data-name="Group 65">
        <path id="Clip_64-2" data-name="Clip 64" d="M120.561.12C91.91,2.388,90.32,26.692,90.32,26.692h0S67.567,14.021,47.822,16.1h0A29.088,29.088,0,0,0,22.99,35.524h0S16.022,30.34,10.6,33.289h0c-5.42,2.949-16.262,12.557-6.969,16.5h0c25.648,10.878,135.515,3.078,160.295,2.663h0c7.994-.133,36.516-1.373,42.047-5.174h0C213.6,42.026,217.249,31.088,208.128,28h0c-7.189-2.431-12.221,7.368-12.221,7.368h0s1.781-16.9-9.807-19.267h0c-15.751-3.214-27.156,12.368-27.156,12.368h0S149.9,0,123.557,0h0q-1.463,0-3,.12" transform="translate(0.403 0.968)" fill="none"/>
        <g id="Group_65-2" data-name="Group 65" clip-path="url(#clip-path-3)">
          <path id="Fill_63" data-name="Fill 63" d="M5.809,87.419a.387.387,0,0,1-.386-.367L0,.415A.391.391,0,0,1,.364,0a.378.378,0,0,1,.41.366L6.194,87a.389.389,0,0,1-.362.415H5.809" transform="translate(122.589 -12.585)" fill="#fff"/>
        </g>
      </g>
      <g id="Group_68" data-name="Group 68">
        <path id="Clip_67-2" data-name="Clip 67" d="M120.561.12C91.91,2.388,90.32,26.692,90.32,26.692h0S67.567,14.021,47.822,16.1h0A29.088,29.088,0,0,0,22.99,35.524h0S16.022,30.34,10.6,33.289h0c-5.42,2.949-16.262,12.557-6.969,16.5h0c25.648,10.878,135.515,3.078,160.295,2.663h0c7.994-.133,36.516-1.373,42.047-5.174h0C213.6,42.026,217.249,31.088,208.128,28h0c-7.189-2.431-12.221,7.368-12.221,7.368h0s1.781-16.9-9.807-19.267h0c-15.751-3.214-27.156,12.368-27.156,12.368h0S149.9,0,123.557,0h0q-1.463,0-3,.12" transform="translate(0.403 0.968)" fill="none"/>
        <g id="Group_68-2" data-name="Group 68" clip-path="url(#clip-path-3)">
          <path id="Fill_66" data-name="Fill 66" d="M.387,58.744a.388.388,0,0,1-.24-.083.4.4,0,0,1-.065-.55c14.893-19.2,30-57.48,30.144-57.865a.388.388,0,0,1,.5-.219.393.393,0,0,1,.217.509C30.8.921,15.653,39.308.692,58.593a.382.382,0,0,1-.3.151" transform="translate(156.274 9.884)" fill="#fff"/>
        </g>
      </g>
      <g id="Group_71" data-name="Group 71">
        <path id="Clip_70-2" data-name="Clip 70" d="M120.561.12C91.91,2.388,90.32,26.692,90.32,26.692h0S67.567,14.021,47.822,16.1h0A29.088,29.088,0,0,0,22.99,35.524h0S16.022,30.34,10.6,33.289h0c-5.42,2.949-16.262,12.557-6.969,16.5h0c25.648,10.878,135.515,3.078,160.295,2.663h0c7.994-.133,36.516-1.373,42.047-5.174h0C213.6,42.026,217.249,31.088,208.128,28h0c-7.189-2.431-12.221,7.368-12.221,7.368h0s1.781-16.9-9.807-19.267h0c-15.751-3.214-27.156,12.368-27.156,12.368h0S149.9,0,123.557,0h0q-1.463,0-3,.12" transform="translate(0.403 0.968)" fill="none"/>
        <g id="Group_71-2" data-name="Group 71" clip-path="url(#clip-path-3)">
          <path id="Fill_69" data-name="Fill 69" d="M38.335,67.369a.389.389,0,0,1-.314-.16C36.452,65.025-.383,13.631,0,.38A.413.413,0,0,1,.4,0,.392.392,0,0,1,.778.4C.4,13.39,38.265,66.216,38.648,66.748a.394.394,0,0,1-.086.546.381.381,0,0,1-.227.074" transform="translate(36.631 4.08)" fill="#fff"/>
        </g>
      </g>
      <g id="Group_74" data-name="Group 74">
        <path id="Clip_73-2" data-name="Clip 73" d="M120.561.12C91.91,2.388,90.32,26.692,90.32,26.692h0S67.567,14.021,47.822,16.1h0A29.088,29.088,0,0,0,22.99,35.524h0S16.022,30.34,10.6,33.289h0c-5.42,2.949-16.262,12.557-6.969,16.5h0c25.648,10.878,135.515,3.078,160.295,2.663h0c7.994-.133,36.516-1.373,42.047-5.174h0C213.6,42.026,217.249,31.088,208.128,28h0c-7.189-2.431-12.221,7.368-12.221,7.368h0s1.781-16.9-9.807-19.267h0c-15.751-3.214-27.156,12.368-27.156,12.368h0S149.9,0,123.557,0h0q-1.463,0-3,.12" transform="translate(0.403 0.968)" fill="none"/>
        <g id="Group_74-2" data-name="Group 74" clip-path="url(#clip-path-3)">
          <path id="Fill_72" data-name="Fill 72" d="M16.98,49.115a.382.382,0,0,1-.335-.2C15.754,47.331-5.083,9.951,1.168.179A.385.385,0,0,1,1.7.063.4.4,0,0,1,1.818.6c-6,9.377,15.283,47.543,15.5,47.927a.39.39,0,0,1-.336.584" transform="translate(9.2 22.334)" fill="#fff"/>
        </g>
      </g>
      <g id="Group_77" data-name="Group 77">
        <path id="Clip_76-2" data-name="Clip 76" d="M120.561.12C91.91,2.388,90.32,26.692,90.32,26.692h0S67.567,14.021,47.822,16.1h0A29.088,29.088,0,0,0,22.99,35.524h0S16.022,30.34,10.6,33.289h0c-5.42,2.949-16.262,12.557-6.969,16.5h0c25.648,10.878,135.515,3.078,160.295,2.663h0c7.994-.133,36.516-1.373,42.047-5.174h0C213.6,42.026,217.249,31.088,208.128,28h0c-7.189-2.431-12.221,7.368-12.221,7.368h0s1.781-16.9-9.807-19.267h0c-15.751-3.214-27.156,12.368-27.156,12.368h0S149.9,0,123.557,0h0q-1.463,0-3,.12" transform="translate(0.403 0.968)" fill="none"/>
        <g id="Group_77-2" data-name="Group 77" clip-path="url(#clip-path-3)">
          <path id="Fill_75" data-name="Fill 75" d="M17.355,57.954a.389.389,0,0,1-.36-.245C16.187,55.691-2.772,8.2.346.248a.386.386,0,0,1,.5-.219.391.391,0,0,1,.217.507c-3,7.665,16.45,56.39,16.648,56.882a.39.39,0,0,1-.359.538" transform="translate(61.869 6.349)" fill="#fff"/>
        </g>
      </g>
      <g id="Group_80" data-name="Group 80">
        <path id="Clip_79-2" data-name="Clip 79" d="M120.561.12C91.91,2.388,90.32,26.692,90.32,26.692h0S67.567,14.021,47.822,16.1h0A29.088,29.088,0,0,0,22.99,35.524h0S16.022,30.34,10.6,33.289h0c-5.42,2.949-16.262,12.557-6.969,16.5h0c25.648,10.878,135.515,3.078,160.295,2.663h0c7.994-.133,36.516-1.373,42.047-5.174h0C213.6,42.026,217.249,31.088,208.128,28h0c-7.189-2.431-12.221,7.368-12.221,7.368h0s1.781-16.9-9.807-19.267h0c-15.751-3.214-27.156,12.368-27.156,12.368h0S149.9,0,123.557,0h0q-1.463,0-3,.12" transform="translate(0.403 0.968)" fill="none"/>
        <g id="Group_80-2" data-name="Group 80" clip-path="url(#clip-path-3)">
          <path id="Fill_78" data-name="Fill 78" d="M26.25,46.957a.385.385,0,0,1-.3-.146C24.675,45.216-5.153,7.64.78.147A.385.385,0,0,1,1.325.086a.394.394,0,0,1,.061.55C-3.055,6.243,15.9,32.972,26.551,46.32a.4.4,0,0,1-.059.551.383.383,0,0,1-.243.086" transform="translate(27.034 14.247)" fill="#fff"/>
        </g>
      </g>
      <g id="Group_83" data-name="Group 83">
        <path id="Clip_82-2" data-name="Clip 82" d="M120.561.12C91.91,2.388,90.32,26.692,90.32,26.692h0S67.567,14.021,47.822,16.1h0A29.088,29.088,0,0,0,22.99,35.524h0S16.022,30.34,10.6,33.289h0c-5.42,2.949-16.262,12.557-6.969,16.5h0c25.648,10.878,135.515,3.078,160.295,2.663h0c7.994-.133,36.516-1.373,42.047-5.174h0C213.6,42.026,217.249,31.088,208.128,28h0c-7.189-2.431-12.221,7.368-12.221,7.368h0s1.781-16.9-9.807-19.267h0c-15.751-3.214-27.156,12.368-27.156,12.368h0S149.9,0,123.557,0h0q-1.463,0-3,.12" transform="translate(0.403 0.968)" fill="none"/>
        <g id="Group_83-2" data-name="Group 83" clip-path="url(#clip-path-3)">
          <path id="Fill_81" data-name="Fill 81" d="M9.494,31.588a.385.385,0,0,1-.351-.227C7.863,28.556-3.247,3.85.937.1a.385.385,0,0,1,.547.032A.4.4,0,0,1,1.45.684C-1.728,3.533,6.433,23.557,9.845,31.033a.393.393,0,0,1-.19.519.385.385,0,0,1-.162.035" transform="translate(16.686 26.378)" fill="#fff"/>
        </g>
      </g>
      <g id="Group_86" data-name="Group 86">
        <path id="Clip_85-2" data-name="Clip 85" d="M120.561.12C91.91,2.388,90.32,26.692,90.32,26.692h0S67.567,14.021,47.822,16.1h0A29.088,29.088,0,0,0,22.99,35.524h0S16.022,30.34,10.6,33.289h0c-5.42,2.949-16.262,12.557-6.969,16.5h0c25.648,10.878,135.515,3.078,160.295,2.663h0c7.994-.133,36.516-1.373,42.047-5.174h0C213.6,42.026,217.249,31.088,208.128,28h0c-7.189-2.431-12.221,7.368-12.221,7.368h0s1.781-16.9-9.807-19.267h0c-15.751-3.214-27.156,12.368-27.156,12.368h0S149.9,0,123.557,0h0q-1.463,0-3,.12" transform="translate(0.403 0.968)" fill="none"/>
        <g id="Group_86-2" data-name="Group 86" clip-path="url(#clip-path-3)">
          <path id="Fill_84" data-name="Fill 84" d="M17.737,64.533a.385.385,0,0,1-.349-.223C16.468,62.367-5.071,16.522,1.114.251a.384.384,0,0,1,.5-.225.39.39,0,0,1,.223.5c-6.064,15.96,16.027,62.97,16.25,63.442a.394.394,0,0,1-.182.523.4.4,0,0,1-.167.038" transform="translate(97.109 -6.568)" fill="#fff"/>
        </g>
      </g>
      <g id="Group_89" data-name="Group 89">
        <path id="Clip_88-2" data-name="Clip 88" d="M120.561.12C91.91,2.388,90.32,26.692,90.32,26.692h0S67.567,14.021,47.822,16.1h0A29.088,29.088,0,0,0,22.99,35.524h0S16.022,30.34,10.6,33.289h0c-5.42,2.949-16.262,12.557-6.969,16.5h0c25.648,10.878,135.515,3.078,160.295,2.663h0c7.994-.133,36.516-1.373,42.047-5.174h0C213.6,42.026,217.249,31.088,208.128,28h0c-7.189-2.431-12.221,7.368-12.221,7.368h0s1.781-16.9-9.807-19.267h0c-15.751-3.214-27.156,12.368-27.156,12.368h0S149.9,0,123.557,0h0q-1.463,0-3,.12" transform="translate(0.403 0.968)" fill="none"/>
        <g id="Group_89-2" data-name="Group 89" clip-path="url(#clip-path-3)">
          <path id="Fill_87" data-name="Fill 87" d="M.388,62a.371.371,0,0,1-.06,0A.39.39,0,0,1,0,61.55C.081,61.034,7.737,9.769,7.356.408A.388.388,0,0,1,7.728,0a.376.376,0,0,1,.4.374C8.515,9.811,1.086,59.555.769,61.666A.386.386,0,0,1,.388,62" transform="translate(142.336 -2.03)" fill="#fff"/>
        </g>
      </g>
      <g id="Group_92" data-name="Group 92">
        <path id="Clip_91-2" data-name="Clip 91" d="M120.561.12C91.91,2.388,90.32,26.692,90.32,26.692h0S67.567,14.021,47.822,16.1h0A29.088,29.088,0,0,0,22.99,35.524h0S16.022,30.34,10.6,33.289h0c-5.42,2.949-16.262,12.557-6.969,16.5h0c25.648,10.878,135.515,3.078,160.295,2.663h0c7.994-.133,36.516-1.373,42.047-5.174h0C213.6,42.026,217.249,31.088,208.128,28h0c-7.189-2.431-12.221,7.368-12.221,7.368h0s1.781-16.9-9.807-19.267h0c-15.751-3.214-27.156,12.368-27.156,12.368h0S149.9,0,123.557,0h0q-1.463,0-3,.12" transform="translate(0.403 0.968)" fill="none"/>
        <g id="Group_92-2" data-name="Group 92" clip-path="url(#clip-path-3)">
          <path id="Fill_90" data-name="Fill 90" d="M1.661,48.081a.388.388,0,0,1-.384-.354C1.117,46.059-2.544,6.8,3.308.132A.384.384,0,0,1,3.856.1.393.393,0,0,1,3.888.65c-5.63,6.418-1.878,46.6-1.84,47a.39.39,0,0,1-.349.426l-.037,0" transform="translate(85.306 9.884)" fill="#fff"/>
        </g>
      </g>
      <g id="Group_95" data-name="Group 95">
        <path id="Clip_94-2" data-name="Clip 94" d="M120.561.12C91.91,2.388,90.32,26.692,90.32,26.692h0S67.567,14.021,47.822,16.1h0A29.088,29.088,0,0,0,22.99,35.524h0S16.022,30.34,10.6,33.289h0c-5.42,2.949-16.262,12.557-6.969,16.5h0c25.648,10.878,135.515,3.078,160.295,2.663h0c7.994-.133,36.516-1.373,42.047-5.174h0C213.6,42.026,217.249,31.088,208.128,28h0c-7.189-2.431-12.221,7.368-12.221,7.368h0s1.781-16.9-9.807-19.267h0c-15.751-3.214-27.156,12.368-27.156,12.368h0S149.9,0,123.557,0h0q-1.463,0-3,.12" transform="translate(0.403 0.968)" fill="none"/>
        <g id="Group_95-2" data-name="Group 95" clip-path="url(#clip-path-3)">
          <path id="Fill_93" data-name="Fill 93" d="M.388,51.432l-.049,0A.389.389,0,0,1,0,50.994C.225,49.194,5.511,6.867,11.719.124A.387.387,0,0,1,12.266.1a.4.4,0,0,1,.02.553C6.247,7.217.825,50.652.771,51.09a.387.387,0,0,1-.383.342" transform="translate(156.275 10.623)" fill="#fff"/>
        </g>
      </g>
      <g id="Group_98" data-name="Group 98">
        <path id="Clip_97-2" data-name="Clip 97" d="M120.561.12C91.91,2.388,90.32,26.692,90.32,26.692h0S67.567,14.021,47.822,16.1h0A29.088,29.088,0,0,0,22.99,35.524h0S16.022,30.34,10.6,33.289h0c-5.42,2.949-16.262,12.557-6.969,16.5h0c25.648,10.878,135.515,3.078,160.295,2.663h0c7.994-.133,36.516-1.373,42.047-5.174h0C213.6,42.026,217.249,31.088,208.128,28h0c-7.189-2.431-12.221,7.368-12.221,7.368h0s1.781-16.9-9.807-19.267h0c-15.751-3.214-27.156,12.368-27.156,12.368h0S149.9,0,123.557,0h0q-1.463,0-3,.12" transform="translate(0.403 0.968)" fill="none"/>
        <g id="Group_98-2" data-name="Group 98" clip-path="url(#clip-path-3)">
          <path id="Fill_96" data-name="Fill 96" d="M.387,48.973a.385.385,0,0,1-.214-.066.392.392,0,0,1-.108-.542c.266-.4,26.64-40.552,26.263-47.952A.391.391,0,0,1,26.7,0,.377.377,0,0,1,27.1.373C27.491,8.031,1.8,47.137.709,48.8a.387.387,0,0,1-.323.174" transform="translate(171.374 19.041)" fill="#fff"/>
        </g>
      </g>
      <g id="Group_101" data-name="Group 101">
        <path id="Clip_100-2" data-name="Clip 100" d="M120.561.12C91.91,2.388,90.32,26.692,90.32,26.692h0S67.567,14.021,47.822,16.1h0A29.088,29.088,0,0,0,22.99,35.524h0S16.022,30.34,10.6,33.289h0c-5.42,2.949-16.262,12.557-6.969,16.5h0c25.648,10.878,135.515,3.078,160.295,2.663h0c7.994-.133,36.516-1.373,42.047-5.174h0C213.6,42.026,217.249,31.088,208.128,28h0c-7.189-2.431-12.221,7.368-12.221,7.368h0s1.781-16.9-9.807-19.267h0c-15.751-3.214-27.156,12.368-27.156,12.368h0S149.9,0,123.557,0h0q-1.463,0-3,.12" transform="translate(0.403 0.968)" fill="none"/>
        <g id="Group_101-2" data-name="Group 101" clip-path="url(#clip-path-3)">
          <path id="Fill_99" data-name="Fill 99" d="M.387,51.346a.383.383,0,0,1-.231-.077.394.394,0,0,1-.08-.547C11,35.853,31.3,6.217,29.985.479A.392.392,0,0,1,30.276.01.387.387,0,0,1,30.74.3C32.462,7.823,2,49.42.7,51.188a.386.386,0,0,1-.311.158" transform="translate(182.717 19.762)" fill="#fff"/>
        </g>
      </g>
      <g id="Group_104" data-name="Group 104">
        <path id="Clip_103-2" data-name="Clip 103" d="M120.561.12C91.91,2.388,90.32,26.692,90.32,26.692h0S67.567,14.021,47.822,16.1h0A29.088,29.088,0,0,0,22.99,35.524h0S16.022,30.34,10.6,33.289h0c-5.42,2.949-16.262,12.557-6.969,16.5h0c25.648,10.878,135.515,3.078,160.295,2.663h0c7.994-.133,36.516-1.373,42.047-5.174h0C213.6,42.026,217.249,31.088,208.128,28h0c-7.189-2.431-12.221,7.368-12.221,7.368h0s1.781-16.9-9.807-19.267h0c-15.751-3.214-27.156,12.368-27.156,12.368h0S149.9,0,123.557,0h0q-1.463,0-3,.12" transform="translate(0.403 0.968)" fill="none"/>
        <g id="Group_104-2" data-name="Group 104" clip-path="url(#clip-path-3)">
          <path id="Fill_102" data-name="Fill 102" d="M21.666,29.188a.378.378,0,0,1-.263-.105C20.408,28.154-2.9,6.241.3.206A.385.385,0,0,1,.826.046a.393.393,0,0,1,.158.53C-1.441,5.147,15.281,22.29,21.929,28.51a.394.394,0,0,1,.021.553.383.383,0,0,1-.284.126" transform="translate(103.749 -2.028)" fill="#fff"/>
        </g>
      </g>
      <g id="Group_107" data-name="Group 107">
        <path id="Clip_106-2" data-name="Clip 106" d="M120.561.12C91.91,2.388,90.32,26.692,90.32,26.692h0S67.567,14.021,47.822,16.1h0A29.088,29.088,0,0,0,22.99,35.524h0S16.022,30.34,10.6,33.289h0c-5.42,2.949-16.262,12.557-6.969,16.5h0c25.648,10.878,135.515,3.078,160.295,2.663h0c7.994-.133,36.516-1.373,42.047-5.174h0C213.6,42.026,217.249,31.088,208.128,28h0c-7.189-2.431-12.221,7.368-12.221,7.368h0s1.781-16.9-9.807-19.267h0c-15.751-3.214-27.156,12.368-27.156,12.368h0S149.9,0,123.557,0h0q-1.463,0-3,.12" transform="translate(0.403 0.968)" fill="none"/>
        <g id="Group_107-2" data-name="Group 107" clip-path="url(#clip-path-3)">
          <path id="Fill_105" data-name="Fill 105" d="M.387,46.965a.389.389,0,0,1-.339-.579C.257,46,20.945,7.659,16.474.6a.394.394,0,0,1,.117-.541.386.386,0,0,1,.536.118C21.841,7.625,1.591,45.167.726,46.763a.386.386,0,0,1-.34.2" transform="translate(125.923 -5.5)" fill="#fff"/>
        </g>
      </g>
      <g id="Group_110" data-name="Group 110">
        <path id="Clip_109-2" data-name="Clip 109" d="M120.561.12C91.91,2.388,90.32,26.692,90.32,26.692h0S67.567,14.021,47.822,16.1h0A29.088,29.088,0,0,0,22.99,35.524h0S16.022,30.34,10.6,33.289h0c-5.42,2.949-16.262,12.557-6.969,16.5h0c25.648,10.878,135.515,3.078,160.295,2.663h0c7.994-.133,36.516-1.373,42.047-5.174h0C213.6,42.026,217.249,31.088,208.128,28h0c-7.189-2.431-12.221,7.368-12.221,7.368h0s1.781-16.9-9.807-19.267h0c-15.751-3.214-27.156,12.368-27.156,12.368h0S149.9,0,123.557,0h0q-1.463,0-3,.12" transform="translate(0.403 0.968)" fill="none"/>
        <g id="Group_110-2" data-name="Group 110" clip-path="url(#clip-path-3)">
          <path id="Fill_108" data-name="Fill 108" d="M13.346,34.416a.381.381,0,0,1-.338-.2C12.376,33.071-2.419,6.138.343.224A.386.386,0,0,1,.859.037a.393.393,0,0,1,.185.522c-2.595,5.554,12.488,33,12.64,33.275a.393.393,0,0,1-.149.532.383.383,0,0,1-.188.049" transform="translate(72.723 10.704)" fill="#fff"/>
        </g>
      </g>
      <g id="Group_113" data-name="Group 113">
        <path id="Clip_112-2" data-name="Clip 112" d="M120.561.12C91.91,2.388,90.32,26.692,90.32,26.692h0S67.567,14.021,47.822,16.1h0A29.088,29.088,0,0,0,22.99,35.524h0S16.022,30.34,10.6,33.289h0c-5.42,2.949-16.262,12.557-6.969,16.5h0c25.648,10.878,135.515,3.078,160.295,2.663h0c7.994-.133,36.516-1.373,42.047-5.174h0C213.6,42.026,217.249,31.088,208.128,28h0c-7.189-2.431-12.221,7.368-12.221,7.368h0s1.781-16.9-9.807-19.267h0c-15.751-3.214-27.156,12.368-27.156,12.368h0S149.9,0,123.557,0h0q-1.463,0-3,.12" transform="translate(0.403 0.968)" fill="none"/>
        <g id="Group_113-2" data-name="Group 113" clip-path="url(#clip-path-3)">
          <path id="Fill_111" data-name="Fill 111" d="M16.291,27.283a.385.385,0,0,1-.271-.112C15.264,26.42-2.464,8.725.29.269A.384.384,0,0,1,.778.02a.392.392,0,0,1,.247.494c-2.6,8,15.356,25.919,15.538,26.1a.4.4,0,0,1,0,.554.383.383,0,0,1-.276.117" transform="translate(51.077 4.232)" fill="#fff"/>
        </g>
      </g>
      <g id="Group_116" data-name="Group 116">
        <path id="Clip_115-2" data-name="Clip 115" d="M120.561.12C91.91,2.388,90.32,26.692,90.32,26.692h0S67.567,14.021,47.822,16.1h0A29.088,29.088,0,0,0,22.99,35.524h0S16.022,30.34,10.6,33.289h0c-5.42,2.949-16.262,12.557-6.969,16.5h0c25.648,10.878,135.515,3.078,160.295,2.663h0c7.994-.133,36.516-1.373,42.047-5.174h0C213.6,42.026,217.249,31.088,208.128,28h0c-7.189-2.431-12.221,7.368-12.221,7.368h0s1.781-16.9-9.807-19.267h0c-15.751-3.214-27.156,12.368-27.156,12.368h0S149.9,0,123.557,0h0q-1.463,0-3,.12" transform="translate(0.403 0.968)" fill="none"/>
        <g id="Group_116-2" data-name="Group 116" clip-path="url(#clip-path-3)">
          <path id="Fill_114" data-name="Fill 114" d="M27.2,29.592a.383.383,0,0,1-.245-.088C25.888,28.623.838,7.844,0,.437A.391.391,0,0,1,.343,0a.39.39,0,0,1,.43.344c.8,7.094,26.412,28.337,26.67,28.549a.393.393,0,0,1,.055.551.386.386,0,0,1-.3.144" transform="translate(16.665 19.042)" fill="#fff"/>
        </g>
      </g>
      <g id="Group_119" data-name="Group 119">
        <path id="Clip_118-2" data-name="Clip 118" d="M120.561.12C91.91,2.388,90.32,26.692,90.32,26.692h0S67.567,14.021,47.822,16.1h0A29.088,29.088,0,0,0,22.99,35.524h0S16.022,30.34,10.6,33.289h0c-5.42,2.949-16.262,12.557-6.969,16.5h0c25.648,10.878,135.515,3.078,160.295,2.663h0c7.994-.133,36.516-1.373,42.047-5.174h0C213.6,42.026,217.249,31.088,208.128,28h0c-7.189-2.431-12.221,7.368-12.221,7.368h0s1.781-16.9-9.807-19.267h0c-15.751-3.214-27.156,12.368-27.156,12.368h0S149.9,0,123.557,0h0q-1.463,0-3,.12" transform="translate(0.403 0.968)" fill="none"/>
        <g id="Group_119-2" data-name="Group 119" clip-path="url(#clip-path-3)">
          <path id="Fill_117" data-name="Fill 117" d="M.387,34.907a.385.385,0,0,1-.18-.045.392.392,0,0,1-.162-.528C.194,34.043,15.087,5.3,15.514.356A.381.381,0,0,1,15.933,0a.39.39,0,0,1,.352.423C15.845,5.522,1.346,33.508.73,34.7a.386.386,0,0,1-.343.21" transform="translate(143.911 14.248)" fill="#fff"/>
        </g>
      </g>
      <g id="Group_122" data-name="Group 122">
        <path id="Clip_121-2" data-name="Clip 121" d="M120.561.12C91.91,2.388,90.32,26.692,90.32,26.692h0S67.567,14.021,47.822,16.1h0A29.088,29.088,0,0,0,22.99,35.524h0S16.022,30.34,10.6,33.289h0c-5.42,2.949-16.262,12.557-6.969,16.5h0c25.648,10.878,135.515,3.078,160.295,2.663h0c7.994-.133,36.516-1.373,42.047-5.174h0C213.6,42.026,217.249,31.088,208.128,28h0c-7.189-2.431-12.221,7.368-12.221,7.368h0s1.781-16.9-9.807-19.267h0c-15.751-3.214-27.156,12.368-27.156,12.368h0S149.9,0,123.557,0h0q-1.463,0-3,.12" transform="translate(0.403 0.968)" fill="none"/>
        <g id="Group_122-2" data-name="Group 122" clip-path="url(#clip-path-3)">
          <path id="Fill_120" data-name="Fill 120" d="M.386,38.448H.367A.389.389,0,0,1,0,38.037C.059,36.8,1.512,7.522,5.994.186A.384.384,0,0,1,6.527.059.4.4,0,0,1,6.653.6C2.275,7.763.788,37.773.772,38.075a.388.388,0,0,1-.386.373" transform="translate(172.629 2.963)" fill="#fff"/>
        </g>
      </g>
      <g id="Group_125" data-name="Group 125">
        <path id="Clip_124-2" data-name="Clip 124" d="M120.561.12C91.91,2.388,90.32,26.692,90.32,26.692h0S67.567,14.021,47.822,16.1h0A29.088,29.088,0,0,0,22.99,35.524h0S16.022,30.34,10.6,33.289h0c-5.42,2.949-16.262,12.557-6.969,16.5h0c25.648,10.878,135.515,3.078,160.295,2.663h0c7.994-.133,36.516-1.373,42.047-5.174h0C213.6,42.026,217.249,31.088,208.128,28h0c-7.189-2.431-12.221,7.368-12.221,7.368h0s1.781-16.9-9.807-19.267h0c-15.751-3.214-27.156,12.368-27.156,12.368h0S149.9,0,123.557,0h0q-1.463,0-3,.12" transform="translate(0.403 0.968)" fill="none"/>
        <g id="Group_125-2" data-name="Group 125" clip-path="url(#clip-path-3)">
          <path id="Fill_123" data-name="Fill 123" d="M25.261,45.67a.388.388,0,0,1-.309-.155C23.82,44.01-2.773,8.543.237.255a.387.387,0,0,1,.5-.231.394.394,0,0,1,.231.5C-1.9,8.413,25.294,44.677,25.57,45.042a.4.4,0,0,1-.073.548.388.388,0,0,1-.235.08" transform="translate(85.468 2.963)" fill="#fff"/>
        </g>
      </g>
      <g id="Group_128" data-name="Group 128">
        <path id="Clip_127-2" data-name="Clip 127" d="M120.561.12C91.91,2.388,90.32,26.692,90.32,26.692h0S67.567,14.021,47.822,16.1h0A29.088,29.088,0,0,0,22.99,35.524h0S16.022,30.34,10.6,33.289h0c-5.42,2.949-16.262,12.557-6.969,16.5h0c25.648,10.878,135.515,3.078,160.295,2.663h0c7.994-.133,36.516-1.373,42.047-5.174h0C213.6,42.026,217.249,31.088,208.128,28h0c-7.189-2.431-12.221,7.368-12.221,7.368h0s1.781-16.9-9.807-19.267h0c-15.751-3.214-27.156,12.368-27.156,12.368h0S149.9,0,123.557,0h0q-1.463,0-3,.12Z" transform="translate(0.403 0.968)" fill="none"/>
        <g id="Group_128-2" data-name="Group 128" clip-path="url(#clip-path-27)">
          <path id="Fill_126" data-name="Fill 126" d="M4.282,23.538a.389.389,0,0,1-.386-.383c0-.143-.325-14.315-3.864-22.61a.392.392,0,0,1,.2-.513.386.386,0,0,1,.51.2c3.6,8.435,3.923,22.758,3.927,22.9a.39.39,0,0,1-.38.4Z" transform="translate(43.477 6.348)" fill="#fff"/>
        </g>
      </g>
      <g id="Group_131" data-name="Group 131">
        <path id="Clip_130-2" data-name="Clip 130" d="M120.561.12C91.91,2.388,90.32,26.692,90.32,26.692h0S67.567,14.021,47.822,16.1h0A29.088,29.088,0,0,0,22.99,35.524h0S16.022,30.34,10.6,33.289h0c-5.42,2.949-16.262,12.557-6.969,16.5h0c25.648,10.878,135.515,3.078,160.295,2.663h0c7.994-.133,36.516-1.373,42.047-5.174h0C213.6,42.026,217.249,31.088,208.128,28h0c-7.189-2.431-12.221,7.368-12.221,7.368h0s1.781-16.9-9.807-19.267h0c-15.751-3.214-27.156,12.368-27.156,12.368h0S149.9,0,123.557,0h0q-1.463,0-3,.12" transform="translate(0.403 0.968)" fill="none"/>
        <g id="Group_131-2" data-name="Group 131" clip-path="url(#clip-path-3)">
          <path id="Fill_129" data-name="Fill 129" d="M13.757,11.586a.4.4,0,0,1-.1-.014C13.181,11.44,2.068,8.24.013.493A.391.391,0,0,1,.287.013.388.388,0,0,1,.762.289C2.7,7.6,13.75,10.787,13.862,10.818a.392.392,0,0,1,.268.481.387.387,0,0,1-.373.287" transform="translate(0.016 33.533)" fill="#fff"/>
        </g>
      </g>
      <g id="Group_134" data-name="Group 134">
        <path id="Clip_133-2" data-name="Clip 133" d="M120.561.12C91.91,2.388,90.32,26.692,90.32,26.692h0S67.567,14.021,47.822,16.1h0A29.088,29.088,0,0,0,22.99,35.524h0S16.022,30.34,10.6,33.289h0c-5.42,2.949-16.262,12.557-6.969,16.5h0c25.648,10.878,135.515,3.078,160.295,2.663h0c7.994-.133,36.516-1.373,42.047-5.174h0C213.6,42.026,217.249,31.088,208.128,28h0c-7.189-2.431-12.221,7.368-12.221,7.368h0s1.781-16.9-9.807-19.267h0c-15.751-3.214-27.156,12.368-27.156,12.368h0S149.9,0,123.557,0h0q-1.463,0-3,.12" transform="translate(0.403 0.968)" fill="none"/>
        <g id="Group_134-2" data-name="Group 134" clip-path="url(#clip-path-3)">
          <path id="Fill_132" data-name="Fill 132" d="M5.258,21.6a.387.387,0,0,1-.335-.2C4.617,20.872-2.493,8.3.929.238A.385.385,0,0,1,1.437.032a.393.393,0,0,1,.2.514C-1.63,8.251,5.52,20.885,5.592,21.011a.393.393,0,0,1-.141.535.384.384,0,0,1-.194.053" transform="translate(133.567 -6.569)" fill="#fff"/>
        </g>
      </g>
      <g id="Group_137" data-name="Group 137">
        <path id="Clip_136-2" data-name="Clip 136" d="M120.561.12C91.91,2.388,90.32,26.692,90.32,26.692h0S67.567,14.021,47.822,16.1h0A29.088,29.088,0,0,0,22.99,35.524h0S16.022,30.34,10.6,33.289h0c-5.42,2.949-16.262,12.557-6.969,16.5h0c25.648,10.878,135.515,3.078,160.295,2.663h0c7.994-.133,36.516-1.373,42.047-5.174h0C213.6,42.026,217.249,31.088,208.128,28h0c-7.189-2.431-12.221,7.368-12.221,7.368h0s1.781-16.9-9.807-19.267h0c-15.751-3.214-27.156,12.368-27.156,12.368h0S149.9,0,123.557,0h0q-1.463,0-3,.12" transform="translate(0.403 0.968)" fill="none"/>
        <g id="Group_137-2" data-name="Group 137" clip-path="url(#clip-path-3)">
          <path id="Fill_135" data-name="Fill 135" d="M.388,25.358H.372A.39.39,0,0,1,0,24.951C.031,24.19.755,6.24,2.684.27A.386.386,0,0,1,3.173.02a.394.394,0,0,1,.248.494C1.523,6.38.782,24.8.774,24.982a.389.389,0,0,1-.386.375" transform="translate(200.612 19.762)" fill="#fff"/>
        </g>
      </g>
      <g id="Group_140" data-name="Group 140">
        <path id="Clip_139-2" data-name="Clip 139" d="M120.561.12C91.91,2.388,90.32,26.692,90.32,26.692h0S67.567,14.021,47.822,16.1h0A29.088,29.088,0,0,0,22.99,35.524h0S16.022,30.34,10.6,33.289h0c-5.42,2.949-16.262,12.557-6.969,16.5h0c25.648,10.878,135.515,3.078,160.295,2.663h0c7.994-.133,36.516-1.373,42.047-5.174h0C213.6,42.026,217.249,31.088,208.128,28h0c-7.189-2.431-12.221,7.368-12.221,7.368h0s1.781-16.9-9.807-19.267h0c-15.751-3.214-27.156,12.368-27.156,12.368h0S149.9,0,123.557,0h0q-1.463,0-3,.12" transform="translate(0.403 0.968)" fill="none"/>
        <g id="Group_140-2" data-name="Group 140" clip-path="url(#clip-path-3)">
          <path id="Fill_138" data-name="Fill 138" d="M.387,37.85a.4.4,0,0,1-.071-.006.39.39,0,0,1-.309-.457C.062,37.081,5.709,6.674,7.578.28A.387.387,0,1,1,8.32.5C6.463,6.858.824,37.225.766,37.531a.386.386,0,0,1-.379.318" transform="translate(190.339 27.521)" fill="#fff"/>
        </g>
      </g>
    </g>
    <path id="Fill_142" data-name="Fill 142" d="M0,34H272V0H0Z" transform="translate(201 272)" fill="#452b21"/>
    <g id="Group_188" data-name="Group 188" transform="translate(0 77)">
      <path id="Fill_143" data-name="Fill 143" d="M223.887,117H1.113A1.111,1.111,0,0,1,0,115.89V1.109A1.11,1.11,0,0,1,1.113,0H223.887A1.11,1.11,0,0,1,225,1.109V115.89a1.111,1.111,0,0,1-1.113,1.11" transform="translate(115 86)" fill="#f2bb25"/>
      <path id="Fill_145" data-name="Fill 145" d="M0,51.462V87.889A1.112,1.112,0,0,0,1.113,89H223.887A1.112,1.112,0,0,0,225,87.889V0C217.629,2.047,20.809,46.157,0,51.462" transform="translate(115 114)" fill="#f2bb25"/>
      <path id="Fill_147" data-name="Fill 147" d="M1.922,7.547A34.1,34.1,0,0,1,7.607,1.882,1.06,1.06,0,0,0,6.945,0H1.055A1.057,1.057,0,0,0,0,1.059V6.943a1.054,1.054,0,0,0,1.9.631c.007-.01.014-.018.021-.027" transform="translate(116 86)" fill="#633e2f"/>
      <path id="Fill_149" data-name="Fill 149" d="M5.564,4.017A32.31,32.31,0,0,1,1.784.354,1.021,1.021,0,0,0,0,1.1V4.9A1.066,1.066,0,0,0,1.029,6H4.984A1.1,1.1,0,0,0,5.59,4.038l-.026-.021" transform="translate(116 197)" fill="#633e2f"/>
      <path id="Fill_151" data-name="Fill 151" d="M7,5.837V1.159A1.121,1.121,0,0,0,5.92,0H1.079A1.172,1.172,0,0,0,.42,2.073,46.727,46.727,0,0,1,5.152,6.647,1.069,1.069,0,0,0,7,5.837" transform="translate(334 85)" fill="#633e2f"/>
      <path id="Fill_153" data-name="Fill 153" d="M1.264,3.345q-.443.426-.905.835A1.054,1.054,0,0,0,1.211,6H4.786A1.147,1.147,0,0,0,6,4.935V1.065A1.246,1.246,0,0,0,3.775.481,23.882,23.882,0,0,1,1.264,3.345" transform="translate(335 197)" fill="#633e2f"/>
      <path id="Fill_155" data-name="Fill 155" d="M12,15H0V5.833A5.919,5.919,0,0,1,6,0a5.918,5.918,0,0,1,6,5.833Z" transform="translate(156 205)" fill="#633e2f"/>
      <path id="Fill_157" data-name="Fill 157" d="M12,15H0V5.833A5.918,5.918,0,0,1,6,0a5.918,5.918,0,0,1,6,5.833Z" transform="translate(220 205)" fill="#633e2f"/>
      <path id="Fill_159" data-name="Fill 159" d="M12,15H0V5.833A5.919,5.919,0,0,1,6,0a5.918,5.918,0,0,1,6,5.833Z" transform="translate(244 205)" fill="#633e2f"/>
      <path id="Fill_161" data-name="Fill 161" d="M12,15H0V5.833A5.918,5.918,0,0,1,6,0a5.918,5.918,0,0,1,6,5.833Z" transform="translate(268 205)" fill="#633e2f"/>
      <path id="Fill_163" data-name="Fill 163" d="M12,15H0V5.833A5.918,5.918,0,0,1,6,0a5.918,5.918,0,0,1,6,5.833Z" transform="translate(292 205)" fill="#633e2f"/>
      <path id="Fill_165" data-name="Fill 165" d="M12,15H0V5.833A5.918,5.918,0,0,1,6,0a5.918,5.918,0,0,1,6,5.833Z" transform="translate(316 205)" fill="#633e2f"/>
      <path id="Fill_167" data-name="Fill 167" d="M0,0H5V18H2.794A2.755,2.755,0,0,1,0,15.286Z" transform="translate(139 203)" fill="#633e2f"/>
      <path id="Clip_170-2" data-name="Clip 170" d="M0,278H500V0H0Z" fill="none"/>
      <g id="Group_188-2" data-name="Group 188" clip-path="url(#clip-path-32)">
        <path id="Fill_169" data-name="Fill 169" d="M0,7H2V0H0Z" transform="translate(140 208)" fill="#e04428"/>
        <path id="Fill_171" data-name="Fill 171" d="M0,100H4V0H0Z" transform="translate(340 120)" fill="#633e2f"/>
        <path id="Fill_172" data-name="Fill 172" d="M81,51.4V100H0V0H48.375C51.75,0,56.25,33.52,62.437,36.592S81,44.972,81,51.4" transform="translate(344 120)" fill="#f2bb25"/>
        <path id="Fill_173" data-name="Fill 173" d="M1.737,0H25.425A31.177,31.177,0,0,1,39.19,3.206c4.165,2.048,8.864,4.548,9.769,5.812C50.648,11.377,0,8.745,0,8.745V1.8A1.768,1.768,0,0,1,1.737,0" transform="translate(344 112)" fill="#f5d798"/>
        <path id="Fill_174" data-name="Fill 174" d="M0,20V0H38.514c4.217,0,5.06,20,0,20Z" transform="translate(387 200)" fill="#633e2f"/>
        <path id="Fill_175" data-name="Fill 175" d="M8,0V16A8,8,0,0,1,8,0" transform="translate(417 173)" fill="#e04428"/>
        <path id="Fill_176" data-name="Fill 176" d="M8,0V11A8.315,8.315,0,0,1,0,5.5,8.316,8.316,0,0,1,8,0" transform="translate(417 178)" fill="#f5d798"/>
        <path id="Fill_177" data-name="Fill 177" d="M.5,31a.329.329,0,0,1-.363-.281V.282A.33.33,0,0,1,.5,0,.331.331,0,0,1,.863.282V30.719A.33.33,0,0,1,.5,31" transform="translate(353 162)" fill="#633e2f"/>
        <path id="Fill_178" data-name="Fill 178" d="M1.225,13.7A52.65,52.65,0,0,0,7.544,9.41s-3.3-.553-3.159-3.319.66-6.916,3.9-5.948,4.478,5.808,3.242,8.437-4.121,8.714-6.045,9.959S1.363,18.263.4,16.88A2.193,2.193,0,0,1,1.225,13.7" transform="translate(400 145)" fill="#f2bb25"/>
        <path id="Fill_179" data-name="Fill 179" d="M.253,2A.214.214,0,0,1,.16,1.977a.385.385,0,0,1-.142-.439A10.354,10.354,0,0,1,.53.162.221.221,0,0,1,.878.05.409.409,0,0,1,.963.515,9.506,9.506,0,0,0,.489,1.786.265.265,0,0,1,.253,2" transform="translate(408 152)" fill="#633e2f"/>
        <path id="Fill_180" data-name="Fill 180" d="M0,19A19,19,0,1,1,19,38,19,19,0,0,1,0,19" transform="translate(174 204)" fill="#633e2f"/>
        <path id="Fill_181" data-name="Fill 181" d="M0,10A10,10,0,1,1,10,20,10,10,0,0,1,0,10" transform="translate(183 213)" fill="#7098b3"/>
        <path id="Fill_182" data-name="Fill 182" d="M0,3A3,3,0,1,1,3,6,3,3,0,0,1,0,3" transform="translate(190 220)" fill="#0e4161"/>
        <path id="Fill_183" data-name="Fill 183" d="M0,27S.042,0,27.744,0s24.1,27,24.1,27Z" transform="translate(341 194)" fill="#f2bb25"/>
        <path id="Fill_184" data-name="Fill 184" d="M0,19A19,19,0,1,1,19,38,19,19,0,0,1,0,19" transform="translate(348 204)" fill="#633e2f"/>
        <path id="Fill_185" data-name="Fill 185" d="M0,10A10,10,0,1,1,10,20,10,10,0,0,1,0,10" transform="translate(357 213)" fill="#7098b3"/>
        <path id="Fill_186" data-name="Fill 186" d="M0,3A3,3,0,1,1,3,6,3,3,0,0,1,0,3" transform="translate(364 220)" fill="#0e4161"/>
        <path id="Fill_187" data-name="Fill 187" d="M.279,10A.285.285,0,0,1,.1,9.941a.263.263,0,0,1-.043-.378C8.9-1.075,23.4-2.959,38.846,4.522a.264.264,0,0,1,.124.361.286.286,0,0,1-.375.12C23.4-2.356,9.156-.526.5,9.9a.283.283,0,0,1-.218.1" transform="translate(346 194)" fill="#633e2f"/>
      </g>
    </g>
    <g id="Group_274" data-name="Group 274" transform="translate(173 236)">
      <path id="Fill_268" data-name="Fill 268" d="M3.706,5a4.689,4.689,0,0,1-1.533-.254C.583,4.2-.324,2.828.107,1.632A.3.3,0,0,1,.47,1.467a.248.248,0,0,1,.189.316c-.341.945.418,2.04,1.728,2.494,1.929.667,4.8-.069,7.063-4.135A.309.309,0,0,1,9.837.026a.239.239,0,0,1,.135.337C8.059,3.793,5.687,5,3.706,5" transform="translate(226 1)" fill="#633e2f"/>
      <path id="Fill_270" data-name="Fill 270" d="M.279,16a.272.272,0,0,1-.08-.012.272.272,0,0,1-.187-.34C3.211,5.265,9.6,0,19,0c7.293,0,16.644,4.105,19,15.673a.273.273,0,0,1-.219.321.278.278,0,0,1-.327-.214C35.163,4.535,26.082.546,19,.546,9.873.546,3.665,5.679.546,15.806A.279.279,0,0,1,.279,16" transform="translate(0 45)" fill="#072130"/>
      <path id="Fill_272" data-name="Fill 272" d="M38.715,16a.283.283,0,0,1-.276-.207C34.6.973,20.909.546,19.361.546c-2.626,0-15.876.734-18.8,15.233a.289.289,0,0,1-.333.216.273.273,0,0,1-.225-.32C3.012.756,16.656,0,19.361,0,20.955,0,35.05.439,38.992,15.661a.274.274,0,0,1-.207.331.325.325,0,0,1-.07.008" transform="translate(174 45)" fill="#072130"/>
    </g>
  </g>
</svg>
